<svg height="800" width="800" version="1.1" id="prefix___x32_" xmlns="http://www.w3.org/2000/svg" viewBox="0 0 512 512" xml:space="preserve"><style>.prefix__st0{fill:#00dfc4}</style><path class="prefix__st0" d="M495.001 189.882a3.786 3.786 0 00-3.833-1.228l-37.986 9.826a3.78 3.78 0 01-4.088-1.562l-16.51-24.756a3.402 3.402 0 00-.693-.773l-15.58-13.247a3.848 3.848 0 01-.992-1.316l-19.458-42.969a2.608 2.608 0 00-.342-.605L384.122 96.97a1.488 1.488 0 00-.079-.114l-15.756-24.424a3.759 3.759 0 01-.526-2.79l.464-2.317a3.772 3.772 0 015.132-2.754l2.413 1a3.755 3.755 0 003.991-.719 3.79 3.79 0 001.036-3.913l-2.711-8.51a3.743 3.743 0 00-2.772-2.535l-26.932-5.992a3.873 3.873 0 00-1.737.027l-21.44 5.359a3.7 3.7 0 01-1.931-.035l-18.756-5.246a3.684 3.684 0 01-1.798-1.123l-4.861-5.474a3.755 3.755 0 00-2.631-1.255l-11.641-.587c-1.931-.088-3.632 1.289-3.913 3.21l-1.403 9.37a3.784 3.784 0 01-1.544 2.518 3.841 3.841 0 01-2.886.632l-24.73-4.676a3.775 3.775 0 01-2.877-2.518l-1.798-5.396a3.774 3.774 0 00-3.448-2.57l-19.677-.676a3.76 3.76 0 01-2.895-1.509l-6.378-8.51a3.77 3.77 0 011.07-5.491l1.675-1.009c1.72-1.027 2.325-3.22 1.403-4.992L209.93 2.004a3.77 3.77 0 00-3.869-1.966L132.685 10.4a3.544 3.544 0 00-.895.237l-21.432 8.729a3.453 3.453 0 01-1.22.272l-13.738.719c-.921.053-1.78.43-2.43 1.071L67.441 46.176a3.764 3.764 0 00-1.096 2.079l-2.018 12.08a3.749 3.749 0 01-1.692 2.571l-22.696 14.37a3.656 3.656 0 00-1.281 1.359l-20.625 37.294a3.72 3.72 0 00-.474 2l1.596 34.231c.009.298-.009.588-.07.878l-2.903 15.256a3.832 3.832 0 00.824 3.15l55.522 65.831a3.808 3.808 0 003.773 1.237l24.59-5.974a3.932 3.932 0 011.158-.097l34.433 2.404c.474.044.956-.026 1.421-.166l25.608-8.291a3.778 3.778 0 013.544.666l15.519 12.704a3.85 3.85 0 002.702.834l14.344-1.202a3.76 3.76 0 012.859.991 3.735 3.735 0 011.229 2.772v13.905c0 .192-.018.377-.044.562l-2.211 14.712a3.773 3.773 0 00.799 2.921l15.905 19.686c.334.42.579.912.719 1.43l12.818 49.69a3.71 3.71 0 01-.061 2.096l-11.694 36.661a3.81 3.81 0 00.14 2.676l19.976 44.733c.149.333.254.684.298 1.062l3.938 30.774c.088.711.395 1.378.843 1.931l19.212 23.046c.562.685.868 1.526.868 2.413v16.791c0 1.079.465 2.114 1.29 2.833a3.73 3.73 0 002.974.895l33.977-4.421 28.529-3.966a3.763 3.763 0 002.316-1.263l43.312-49.716c.42-.49.719-1.096.842-1.736l2.001-9.957a3.76 3.76 0 011.605-2.395l4.553-3.026a3.8 3.8 0 001.675-3.053l.747-30.775c.026-.868.35-1.71.921-2.368l9.202-10.616a3.78 3.78 0 011.772-1.14l18.686-5.545a3.759 3.759 0 002.702-3.615v-37.442c0-.316-.035-.624-.114-.922l-9.106-35.67a3.774 3.774 0 011.965-4.308l3.088-1.543a3.708 3.708 0 001.386-1.185l27.125-38.293a3.82 3.82 0 011.526-1.263l21.871-9.799a3.794 3.794 0 001.886-1.886l23.599-52.207a3.751 3.751 0 00-.543-3.978zM485.606 356.242a3.77 3.77 0 00-2.93-2 3.743 3.743 0 00-3.29 1.316l-18.265 21.634a3.604 3.604 0 01-1.369 1.027l-10.237 4.483a3.755 3.755 0 00-2.255 3.457v21.168c0 .316-.044.622-.123.921l-2.948 11.8a3.863 3.863 0 00.07 2.07l6.799 21.072a3.775 3.775 0 001.912 2.22 3.775 3.775 0 002.914.184l13.632-4.747a3.804 3.804 0 002.395-2.5l16.072-55.488 3.728-12.677a3.812 3.812 0 00-.271-2.808l-5.834-11.132z"/></svg>